<svg width="449" height="249" xmlns="http://www.w3.org/2000/svg" xmlns:sketch="http://www.bohemiancoding.com/sketch/ns"><title>2014.4.24_icons</title><g sketch:type="MSLayerGroup" fill="none"><path d="M224.044 0l224.956 77.443-107.468 36.409s-75.701-27.389-113.234-40.877c-8.958-3.219-11.934 7.24-7.09 8.936 17.777 6.224 108.617 35.968 108.617 35.968l-105.781 36.121-224.044-76.557 224.044-77.443z" id="Shape" sketch:type="MSShapeGroup"/><path d="M130 130c17.366 5.646 90.031 32.09 93.841 32.09 3.81 0 95.159-32.09 95.159-32.09v61.876s-39.107 34.64-95.159 35.119c-56.052.479-93.841-35.119-93.841-35.119v-61.876z" id="Shape" sketch:type="MSShapeGroup"/><path d="M347.978 107l-10.872 2.59v52.13c0 20.535-3.106 64.043-3.106 82.194 7.919 7.089 9.16 6.469 16 0-.518 0-.469-45.664-3.575-82.194-.655-7.699 1.553-54.719 1.553-54.719z" sketch:type="MSShapeGroup"/><circle sketch:type="MSShapeGroup" cx="343.5" cy="160.5" r="10.5"/></g></svg>