<svg width="307" height="249" xmlns="http://www.w3.org/2000/svg" xmlns:sketch="http://www.bohemiancoding.com/sketch/ns"><title>2014.4.24_icons</title><path d="M78.3 56.92c2.364-4.895 6.926-9.753 12.906-14.436 20.619-16.145 58.911-29.952 91.346-33.129 1.001-10.717 23.837-14.114 26.837 0 42.197 1.929 89.379 44.255 94.962 81.688.995 6.67 3.336 31.313 5.161 49.633 4.182 41.99.224 35.999-20.644 29.987-7.771-2.239-12.942-5.996-22.708 0-3.102 1.905-8.441 10.495-15.483 21.714-7.348 11.707-50.244 48.561-67.124 53.967-7.028 2.251-15.357 1.871-20.222.836-41.708-8.879-60.37-32.291-102.579-41.146-9.358-1.963-23.512-6.36-36.127 2.888-10.877 7.974-10.954 9.106-17.547 12.408-11.076-1.338-6.419-10.782-4.129-13.442 6.802-7.902 57.237-59.689 57.803-59.973 1.627-4.556 2.209-7.241 2.72-11.703 3.784-33.04 6.432-58.114 8.137-68.489.992-6.034 3.694-4.597 6.69-10.801z" sketch:type="MSShapeGroup" fill="none"/></svg>