<svg width="288" height="247" xmlns="http://www.w3.org/2000/svg" xmlns:sketch="http://www.bohemiancoding.com/sketch/ns"><title>Untitled</title><path d="M63 210v37h163v-37h-163zm-35.984-111.312l31.322 86.312h171.323l31.322-86.312c15.273-2.142 27.016-15.066 27.016-30.688 0-17.121-14.103-31-31.5-31s-31.5 13.879-31.5 31c0 8.559 3.525 16.308 9.224 21.918l-25.862 26.632-13.167-57.625c10.537-5.014 17.805-15.634 17.805-27.925 0-17.121-14.103-31-31.5-31s-31.5 13.879-31.5 31c0 11.838 6.743 22.127 16.655 27.349l-22.192 55.499-23.274-55.418c9.997-5.196 16.811-15.53 16.811-27.43 0-17.121-14.103-31-31.5-31s-31.5 13.879-31.5 31c0 12.291 7.268 22.911 17.805 27.925l-13.167 57.625-25.862-26.632c5.699-5.61 9.224-13.359 9.224-21.918 0-17.121-14.103-31-31.5-31s-31.5 13.879-31.5 31c0 15.623 11.743 28.546 27.016 30.688z" sketch:type="MSShapeGroup" fill="none"/></svg>