<svg xmlns="http://www.w3.org/2000/svg" width="100" height="100"><path d="M50-.002c-27.571 0-50 22.431-50 50.002 0 27.57 22.429 50.002 50 50.002 27.57 0 50-22.432 50-50.002 0-27.571-22.43-50.002-50-50.002zm0 94.235c-24.39 0-44.23-19.843-44.23-44.233 0-24.391 19.84-44.232 44.23-44.232 24.39 0 44.23 19.842 44.23 44.232s-19.84 44.233-44.23 44.233zM44.783 24.502c-1.127-1.127-2.952-1.127-4.079 0-1.127 1.126-1.127 2.952 0 4.079l21.418 21.419-21.418 21.418c-1.127 1.127-1.127 2.952 0 4.079.563.563 1.302.845 2.04.845s1.476-.281 2.04-.845l23.456-23.458c1.127-1.127 1.127-2.952 0-4.079l-23.457-23.458z"/></svg>