<svg xmlns="http://www.w3.org/2000/svg" width="100" height="100"><path d="M-343.549-210.833c-9.558 0-17.334 7.775-17.334 17.333s7.776 17.333 17.334 17.333 17.334-7.775 17.334-17.333-7.776-17.333-17.334-17.333zm0 32.666c-8.455 0-15.334-6.878-15.334-15.333s6.879-15.333 15.334-15.333 15.334 6.878 15.334 15.333-6.879 15.333-15.334 15.333zM-345.357-202.339c-.287-.287-.717-.373-1.09-.217-.374.155-.617.52-.617.924v16.264c0 .404.244.769.617.924.124.051.254.076.383.076.26 0 .516-.102.707-.293l8.131-8.132c.391-.391.391-1.023 0-1.414l-8.131-8.132zm.293 14.556v-11.435l5.717 5.717-5.717 5.718zM-471.277-210.833c-9.558 0-17.334 7.775-17.334 17.333s7.776 17.333 17.334 17.333 17.334-7.775 17.334-17.333-7.776-17.333-17.334-17.333zm0 32.666c-8.455 0-15.334-6.878-15.334-15.333s6.879-15.333 15.334-15.333 15.334 6.878 15.334 15.333-6.879 15.333-15.334 15.333zM-469.213-200.571c-.286-.287-.716-.373-1.09-.217-.374.155-.617.52-.617.924v5.669l-.008-.012-6.363-6.364c-.286-.287-.716-.373-1.09-.217-.374.155-.617.52-.617.924v12.729c0 .404.244.769.617.924.124.051.254.076.383.076.26 0 .516-.102.707-.293l6.363-6.364.008-.012v5.669c0 .404.244.769.617.924.124.051.254.076.383.076.26 0 .516-.102.707-.293l6.363-6.364c.391-.391.391-1.023 0-1.414l-6.363-6.365zm-7.785 11.021v-7.899l3.949 3.95-3.949 3.949zm8.078 0v-7.899l3.949 3.95-3.949 3.949zM-382.143-210.833c-9.558 0-17.334 7.775-17.334 17.333s7.776 17.333 17.334 17.333c9.557 0 17.332-7.775 17.332-17.333s-7.774-17.333-17.332-17.333zm0 32.666c-8.455 0-15.334-6.878-15.334-15.333s6.879-15.333 15.334-15.333c8.454 0 15.332 6.878 15.332 15.333s-6.877 15.333-15.332 15.333zM-385.211-200.132c-.552 0-1 .448-1 1v11.264c0 .552.448 1 1 1s1-.448 1-1v-11.264c0-.552-.448-1-1-1zM-379.076-200.132c-.552 0-1 .448-1 1v11.264c0 .552.448 1 1 1s1-.448 1-1v-11.264c0-.552-.448-1-1-1zM-514.662-210.833c-9.558 0-17.334 7.775-17.334 17.333s7.776 17.333 17.334 17.333 17.334-7.775 17.334-17.333-7.776-17.333-17.334-17.333zm0 32.666c-8.455 0-15.334-6.878-15.334-15.333s6.879-15.333 15.334-15.333 15.334 6.878 15.334 15.333-6.879 15.333-15.334 15.333zM-509.03-194.5h-4.632v-4.632c0-.552-.448-1-1-1s-1 .448-1 1v4.632h-4.632c-.552 0-1 .448-1 1s.448 1 1 1h4.632v4.632c0 .552.448 1 1 1s1-.448 1-1v-4.632h4.632c.552 0 1-.448 1-1s-.448-1-1-1zM-562.133-210.833c-9.558 0-17.334 7.775-17.334 17.333s7.776 17.333 17.334 17.333 17.333-7.775 17.333-17.333-7.775-17.333-17.333-17.333zm0 32.666c-8.455 0-15.334-6.878-15.334-15.333s6.879-15.333 15.334-15.333 15.333 6.878 15.333 15.333-6.878 15.333-15.333 15.333zM-556.501-194.5h-11.264c-.552 0-1 .448-1 1s.448 1 1 1h11.264c.552 0 1-.448 1-1s-.448-1-1-1zM-595.24-205.71l-.031-.046-.047-.031c-3.135-3.115-7.451-5.045-12.209-5.045-9.558 0-17.334 7.775-17.334 17.333 0 4.762 1.932 9.08 5.051 12.216l.027.04.04.027c3.136 3.119 7.454 5.05 12.216 5.05 9.558 0 17.333-7.775 17.333-17.333 0-4.76-1.93-9.076-5.046-12.211zm-12.287-3.123c3.868 0 7.396 1.451 10.096 3.822l-21.607 21.607c-2.372-2.7-3.823-6.228-3.823-10.096 0-8.455 6.879-15.333 15.334-15.333zm0 30.666c-3.868 0-7.396-1.451-10.097-3.823l21.607-21.607c2.372 2.701 3.823 6.229 3.823 10.097 0 8.455-6.878 15.333-15.333 15.333zM-504.944-262.855c-9.558 0-17.333 7.776-17.333 17.333s7.775 17.334 17.333 17.334 17.333-7.776 17.333-17.334-7.776-17.333-17.333-17.333zm0 32.667c-8.455 0-15.333-6.879-15.333-15.334s6.878-15.333 15.333-15.333 15.333 6.878 15.333 15.333-6.878 15.334-15.333 15.334zM-506.753-254.36c-.391-.391-1.023-.391-1.414 0s-.391 1.023 0 1.414l7.425 7.425-7.425 7.425c-.391.391-.391 1.023 0 1.414.195.195.451.293.707.293s.512-.098.707-.293l8.132-8.132c.391-.391.391-1.023 0-1.414l-8.132-8.132zM49.953 100c27.566 0 49.994-22.426 49.994-49.996 0-27.568-22.428-49.997-49.994-49.997-27.567 0-49.995 22.429-49.995 49.997 0 27.57 22.428 49.996 49.995 49.996zm0-94.224c24.388 0 44.227 19.84 44.227 44.229s-19.839 44.228-44.227 44.228c-24.387 0-44.227-19.839-44.227-44.228.001-24.389 19.84-44.229 44.227-44.229zM55.169 75.502c1.126 1.125 2.954 1.125 4.078 0 1.128-1.128 1.128-2.953 0-4.081l-21.414-21.417 21.415-21.416c1.128-1.126 1.128-2.951 0-4.079-.562-.563-1.3-.845-2.039-.845-.735 0-1.476.282-2.039.845l-23.455 23.455c-1.127 1.126-1.127 2.953 0 4.079l23.454 23.459zM-482.422-245.521c0 9.558 7.775 17.334 17.334 17.334 9.557 0 17.333-7.776 17.333-17.334s-7.776-17.333-17.333-17.333c-9.558-.001-17.334 7.775-17.334 17.333zm32.667 0c0 8.455-6.878 15.334-15.333 15.334s-15.334-6.879-15.334-15.334 6.879-15.333 15.334-15.333 15.333 6.877 15.333 15.333zM-473.928-243.713c-.391.391-.391 1.023 0 1.414s1.023.391 1.414 0l7.426-7.425 7.424 7.425c.391.391 1.023.391 1.414 0 .195-.195.293-.451.293-.707s-.098-.512-.293-.707l-8.131-8.132c-.391-.391-1.023-.391-1.414 0l-8.133 8.132zM-407.898-245.521c0-9.558-7.777-17.333-17.334-17.333-9.559 0-17.334 7.776-17.334 17.333s7.775 17.334 17.334 17.334c9.556-.001 17.334-7.777 17.334-17.334zm-32.668 0c0-8.455 6.879-15.333 15.334-15.333s15.334 6.878 15.334 15.333-6.879 15.334-15.334 15.334-15.334-6.879-15.334-15.334zM-416.395-247.33c.391-.391.391-1.023 0-1.414s-1.023-.391-1.414 0l-7.424 7.425-7.426-7.425c-.391-.391-1.023-.391-1.414 0-.195.195-.293.451-.293.707s.098.512.293.707l8.133 8.132c.391.391 1.023.391 1.414 0l8.131-8.132zM-333.264-233.266c6.758-6.758 6.758-17.754 0-24.513-6.76-6.758-17.756-6.758-24.514 0s-6.758 17.755 0 24.513c6.758 6.76 17.755 6.76 24.514 0zm-23.099-23.098c5.979-5.979 15.707-5.979 21.686-.001s5.979 15.707-.002 21.685c-5.979 5.979-15.705 5.979-21.684 0s-5.979-15.705 0-21.684zM-337.992-240.551c.553 0 1-.447 1-1 0-.553-.447-1-1-1h-10.5v-10.5c0-.553-.447-1-1-1-.277 0-.527.111-.707.293-.182.181-.293.431-.293.707v11.5c0 .552.447 1 1 1h11.5zM-397.633-257.779c-6.758 6.758-6.758 17.755 0 24.513 6.758 6.759 17.754 6.759 24.514 0 6.758-6.758 6.758-17.755-.002-24.513-6.758-6.758-17.754-6.758-24.512 0zm23.1 23.099c-5.98 5.979-15.707 5.979-21.686 0s-5.979-15.706 0-21.685c5.979-5.979 15.705-5.979 21.684 0s5.98 15.707.002 21.685zM-392.906-250.493c-.551 0-1 .447-1 1 0 .552.449 1 1 1h10.502v10.5c0 .553.447 1 .998 1 .277 0 .527-.112.709-.293.18-.181.291-.431.291-.707v-11.5c0-.553-.447-1-1-1h-11.5zM-424.42-210.833c-9.558 0-17.334 7.775-17.334 17.333s7.776 17.333 17.334 17.333c9.557 0 17.332-7.775 17.332-17.333s-7.775-17.333-17.332-17.333zm0 32.666c-8.455 0-15.334-6.878-15.334-15.333s6.879-15.333 15.334-15.333c8.454 0 15.332 6.878 15.332 15.333s-6.878 15.333-15.332 15.333zM-420.014-198.907h-8.814c-.552 0-1 .448-1 1v8.814c0 .552.448 1 1 1h8.814c.552 0 1-.448 1-1v-8.814c0-.552-.447-1-1-1zm-1 8.814h-6.814v-6.814h6.814v6.814zM-306.258-210.833c-9.558 0-17.334 7.775-17.334 17.333s7.776 17.333 17.334 17.333 17.333-7.775 17.333-17.333-7.775-17.333-17.333-17.333zm0 32.666c-8.455 0-15.334-6.878-15.334-15.333s6.879-15.333 15.334-15.333 15.333 6.878 15.333 15.333-6.878 15.333-15.333 15.333zM-301.835-202.595c-.391-.391-1.023-.391-1.414 0s-.391 1.023 0 1.414l2.17 2.17h-9.362c-2.432 0-4.411 1.979-4.411 4.411 0 .552.448 1 1 1s1-.448 1-1c0-.644.251-1.25.706-1.705.456-.456 1.061-.706 1.705-.706h9.361l-2.169 2.169c-.391.391-.391 1.023 0 1.414.195.195.451.293.707.293s.512-.098.707-.293l3.877-3.877c.391-.391.391-1.023 0-1.414l-3.877-3.876zM-298.665-193.4c-.552 0-1 .448-1 1 0 .644-.251 1.249-.707 1.705s-1.061.706-1.704.706h-9.361l2.169-2.169c.391-.391.391-1.023 0-1.414s-1.023-.391-1.414 0l-3.877 3.877c-.391.391-.391 1.023 0 1.414l3.877 3.877c.195.195.451.293.707.293s.512-.098.707-.293c.391-.391.391-1.023 0-1.414l-2.17-2.17h9.362c2.432 0 4.411-1.979 4.411-4.411 0-.553-.448-1.001-1-1.001zM-583.519-157.456c-9.558 0-17.334 7.775-17.334 17.333s7.776 17.333 17.334 17.333 17.333-7.775 17.333-17.333-7.775-17.333-17.333-17.333zm0 32.666c-8.455 0-15.334-6.878-15.334-15.333s6.879-15.333 15.334-15.333 15.333 6.878 15.333 15.333-6.878 15.333-15.333 15.333zM-575.799-138.614c-.391-.391-1.023-.391-1.414 0-.391.39-.391 1.023 0 1.414l1.304 1.304h-3.037l-3.496-3.496 4.213-4.213h2.319l-1.304 1.304c-.391.391-.391 1.024 0 1.414.195.195.451.293.707.293s.512-.098.707-.293l3.01-3.011c.391-.391.391-1.023 0-1.414l-3.01-3.011c-.391-.391-1.023-.391-1.414 0-.391.39-.391 1.023 0 1.414l1.303 1.304h-2.732c-.13 0-.26.026-.382.077-.122.051-.233.124-.325.216l-4.505 4.506-4.506-4.506c-.092-.092-.203-.166-.325-.216-.123-.051-.252-.077-.382-.077h-4.272c-.552 0-1 .448-1 1s.448 1 1 1h3.858l4.213 4.213-3.496 3.496h-4.576c-.552 0-1 .448-1 1s.448 1 1 1h4.99c.13 0 .26-.026.382-.077.122-.051.233-.124.325-.216l3.788-3.788 3.788 3.788c.092.092.203.166.325.216.123.051.252.077.382.077h3.45l-1.303 1.304c-.391.391-.391 1.024 0 1.414.195.195.451.293.707.293s.512-.098.707-.293l3.01-3.011c.391-.391.391-1.023 0-1.414l-3.009-3.011z"/></svg>