<?xml version="1.0" encoding="UTF-8" standalone="no"?>
<svg width="307px" height="249px" viewBox="0 0 307 249" version="1.1" xmlns="http://www.w3.org/2000/svg" xmlns:xlink="http://www.w3.org/1999/xlink" xmlns:sketch="http://www.bohemiancoding.com/sketch/ns">
    <!-- Generator: Sketch 3.0.1 (7597) - http://www.bohemiancoding.com/sketch -->
    <title>2014.4.24_icons</title>
    <description>Created with Sketch.</description>
    <defs></defs>
    <g id="Page-1" stroke="none" stroke-width="1" fill="none" fill-rule="evenodd" sketch:type="MSPage">
        <path d="M78.3003074,56.9199139 C80.6641134,52.0247971 85.2262281,47.1669931 91.2063385,42.4844094 C111.824971,26.339478 150.11752,12.5326311 182.552375,9.35502979 C183.553455,-1.36217797 206.389841,-4.75938123 209.389532,9.35502992 C251.586493,11.283863 298.76879,53.6098423 304.351805,91.0425481 C305.346556,97.7120991 307.688011,122.355166 309.512798,140.675471 C313.695168,182.665177 309.736318,176.674334 288.868826,170.662028 C281.09752,168.422972 275.926447,164.665853 266.160456,170.662028 C263.058259,172.566731 257.71969,181.157075 250.677477,192.376431 C243.328995,204.083723 200.433601,240.93747 183.553455,246.343695 C176.525641,248.594501 168.19635,248.215052 163.331708,247.179447 C121.623417,238.300413 102.961322,214.888392 60.7529321,206.033102 C51.3944636,204.069702 37.2406014,199.672903 24.6259792,208.920739 C13.749385,216.894419 13.6715024,218.026705 7.0786027,221.328969 C-3.99766333,219.991207 0.660046376,210.546838 2.94980822,207.88672 C9.75207266,199.984225 60.1864245,148.197358 60.7529309,147.913605 C62.3802826,143.357239 62.9621499,140.67241 63.4732496,136.210129 C67.2575938,103.169984 69.9048505,78.0957133 71.6107418,67.7207814 C72.6029087,61.6865959 75.304366,63.1240961 78.3003074,56.9199139 Z" id="Cap" fill="#000000" sketch:type="MSShapeGroup"></path>
    </g>
</svg>