<?xml version="1.0" encoding="UTF-8" standalone="no"?>
<svg width="288px" height="247px" viewBox="0 0 288 247" version="1.1" xmlns="http://www.w3.org/2000/svg" xmlns:xlink="http://www.w3.org/1999/xlink" xmlns:sketch="http://www.bohemiancoding.com/sketch/ns">
    <!-- Generator: Sketch 3.0.1 (7597) - http://www.bohemiancoding.com/sketch -->
    <title>Untitled</title>
    <description>Created with Sketch.</description>
    <defs></defs>
    <g id="Page-1" stroke="none" stroke-width="1" fill="none" fill-rule="evenodd" sketch:type="MSPage">
        <path d="M63,210 L63,247 L226,247 L226,210 L63,210 Z M27.0162205,98.6883427 L58.3385214,185 L229.661479,185 L260.983779,98.6883427 L260.983779,98.6883427 C276.25701,96.5463406 288,83.6227638 288,68 C288,50.8791728 273.89697,37 256.5,37 C239.10303,37 225,50.8791728 225,68 C225,76.5591758 228.524738,84.3081724 234.223664,89.9178766 L208.361868,116.549669 L195.195086,58.9247588 C205.732076,53.9106659 213,43.290618 213,31 C213,13.8791728 198.89697,0 181.5,0 C164.10303,0 150,13.8791728 150,31 C150,42.8382409 156.742754,53.126625 166.654904,58.3485147 L166.654904,58.3485147 L144.463035,113.847682 L121.189146,58.4301177 L121.189146,58.4301177 C131.186456,53.2343155 138,42.9002219 138,31 C138,13.8791728 123.89697,0 106.5,0 C89.1030304,0 75,13.8791728 75,31 C75,43.290618 82.2679242,53.9106659 92.8049135,58.9247588 L79.6381323,116.549669 L53.7763362,89.9178766 C59.4752619,84.3081724 63,76.5591758 63,68 C63,50.8791728 48.8969696,37 31.5,37 C14.1030304,37 0,50.8791728 0,68 C0,83.6227638 11.7429898,96.5463406 27.0162205,98.6883427 Z" id="Crown" fill="#000000" sketch:type="MSShapeGroup"></path>
    </g>
</svg>